<svg id="Laag_1" data-name="Laag 1" xmlns="http://www.w3.org/2000/svg" viewBox="0 0 841.89 595.28"><defs><style>.cls-1,.cls-4{fill:#fff;}.cls-10,.cls-11,.cls-12,.cls-2,.cls-5,.cls-7,.cls-8{fill:#020201;}.cls-12,.cls-2,.cls-8,.cls-9{stroke:#020201;}.cls-12,.cls-2,.cls-7,.cls-8{stroke-miterlimit:10;}.cls-2,.cls-7,.cls-8{stroke-width:0.42px;}.cls-2,.cls-3,.cls-4,.cls-5{fill-rule:evenodd;}.cls-3{fill:#ebd2a3;}.cls-6{fill:#c9434f;}.cls-7{stroke:#222221;}.cls-9{fill:none;stroke-linecap:round;stroke-linejoin:round;stroke-width:2px;}.cls-10{font-size:38.69px;font-family:SourceSansPro-Regular, Source Sans Pro;}.cls-12{stroke-width:0.25px;}</style></defs><title>logo</title><rect class="cls-1" width="841.89" height="595.28"/><path class="cls-2" d="M226.44,266.53c-4.23,1.88-8.64,5.54-10.43,9.87a7.77,7.77,0,0,0,3.76,10.15c.85,2.54,3.29,4.32,6.3,3.19,3.76-1.5,7.33-9.86,10.34-13.34,2.25-2.63,14.28-9.12,17.76-11,6.39-3.57,13-7,19.46-10.43,3.85-1.79,8.74-2.45,13-2.92,6-.65,12.12-.94,18.23-1.5,16.92-1.6,32.06-5.17,47.28-13.35,12.41-6.67,26.32-8.83,40.33-7.52a2.11,2.11,0,0,0,2.06-.84,2.42,2.42,0,0,0,.47-2.26c-1.88-6-6.67-12.87-11.27-17.11-12.51-11.56-29.14-13.34-45.4-10.34-.29.1-.47.19-.76.29a46.29,46.29,0,0,0-13.06,11.09c-2.45,3.2-4.42,6.67-6.86,9.77a19.56,19.56,0,0,1-6.11,5A89.81,89.81,0,0,1,297,231.09c-4.51,1.41-9,2.63-13.63,3.76a49.87,49.87,0,0,1-8.17,1.51c-5.74.09-41.36,25.19-48.79,30.17Z"/><path class="cls-3" d="M338.77,201.49c-16.45,9.49-15.23,20.2-26.13,25.94s-32.9,11.18-37.32,11.28-33.46,20.39-47.75,30c0,0-7,3-9.3,8.55s3.57,7.52,3.57,7.52.47,3.86,3.29,2.73,5.64-8.27,9.49-12.69,38-22,38-22c14.76-7,44.37.56,78.3-17.67,14.19-7.62,28.95-9.12,41.83-7.81,0,0-10.25-34-54-25.84Z"/><path class="cls-4" d="M262.73,245.29c-10.91,6.76-26,17.29-35.16,23.4,0,0-7,3-9.3,8.55s3.57,7.52,3.57,7.52.47,3.86,3.29,2.73,5.64-8.27,9.49-12.69,38-22,38-22a31.73,31.73,0,0,1,5.55-1.88h0s-5.45.47-7.52-7Z"/><path class="cls-2" d="M628.64,283.16a7.63,7.63,0,0,0,5-2.06,4,4,0,0,0,1.6-3.67c-.57-3-4.89-3.95-7.43-4.42-6.76-1.12-16.35-4.79-22.46-7.7a122.53,122.53,0,0,0-23.12-8.18c-13.07-3.29-26.13-6.39-39.29-9.31-6.58-1.41-13.82-2.72-20.12-4.6-3.66-1.13-5.92-13.54-6.29-16.73a2.15,2.15,0,0,0-1.41-1.88c-7.24-3.29-18.61-.28-25.57,3.1a2.35,2.35,0,0,0-1.22,2.73c1.69,7.52,7.61,30.26,16,32.24,4,.93,9.21,1.22,13.34,1.69l21,1.69c9.69.75,19.56,1.41,29.24,2.63a107.76,107.76,0,0,1,14.38,2.82,140.89,140.89,0,0,1,16.16,5A70.66,70.66,0,0,1,609,281.1a26.76,26.76,0,0,0,14.85,4.32,6.31,6.31,0,0,0,4.79-2.26Z"/><path class="cls-3" d="M514.16,226.77s2,16.92,7.89,18.7,28.29,6.11,59.59,13.92c0,0,13,3.29,22.66,8s20,7.52,23.12,8,7.14,1.79,4.61,3.95-4.61,1.32-4.61,1.32a3.8,3.8,0,0,1-3.57,2.35,24.09,24.09,0,0,1-13.63-3.86c-6.2-3.85-26.7-11-42.11-12.78s-55.65-4.23-63.26-6-14.29-30.45-14.29-30.45,14.57-7.05,23.6-3.1Z"/><path class="cls-4" d="M585.78,260.51a143.05,143.05,0,0,1,18.52,6.86c9.68,4.7,20,7.52,23.12,8s7.14,1.79,4.61,3.95-4.61,1.32-4.61,1.32a3.8,3.8,0,0,1-3.57,2.35,24.09,24.09,0,0,1-13.63-3.86c-4.61-2.82-17.11-7.52-29.42-10.43a5.59,5.59,0,0,1,2.54-2.91,5.39,5.39,0,0,0,2.44-5.27Z"/><path class="cls-2" d="M357.28,187.67l-3.66-7.9a2.47,2.47,0,0,0-2.73-1.31c-16.92,4.13-34,8.08-51,11.65-9.21,1.88-18.42,3.76-27.63,5.27-6,1-13.35,2.25-19.36,2.25a2.62,2.62,0,0,0-1.7.57c-2.44,2.25-.75,5.26,1.88,6.58,3.76,2,37.13-3.11,42.39-3.95,10.16-1.7,21.25-3.57,31-6.58,6.3-1.88,21.34-5.45,28-3.29a2.58,2.58,0,0,0,2.54-.66,2.43,2.43,0,0,0,.28-2.63Z"/><path class="cls-3" d="M355.22,188.7l-3.77-7.89S272.88,200.17,252.76,200c0,0-1.41,1.32,1.32,2.63s51.13-4.32,71.72-10.62,29.42-3.29,29.42-3.29Z"/><path class="cls-5" d="M572.34,179.58c10.34,5.83,11.56-27.35,16-14.19v.1c.75,1.78,4.13,2,4.88,0a7.23,7.23,0,0,0,.1-3.48c-4.42-22.18-35.91,9.21-21,17.57Z"/><path class="cls-2" d="M650,272a9,9,0,0,0,5.26-2.35,4,4,0,0,0,1.41-3.85c-.66-3.2-5.45-4-8.08-4.42-7.52-.94-18.14-4.61-25-7.61A137,137,0,0,0,598,245.66q-21.72-4.51-43.43-8.65c-4.7-.84-7.79-1.6-12.51-2.46-2.72-.49-7.13-1.2-9.67-1.86h-.09a214.31,214.31,0,0,0,20.11-16.92c4.7-4.41,9.5-9.3,14.85-12.87,11.09-7.34,24.63-8.09,37.41-7.9,7,.28,15.89,1.69,22.37,4.42a10.92,10.92,0,0,0,9.5-.85,25.82,25.82,0,0,0,5.07-2.54c3.48-2.53,5-6.29,2.16-10.05a3.46,3.46,0,0,0-.94-.75c-4.32-1.88-8.64-3.86-12.87-5.93-3.2-1.5-7.71-3.66-10.44-5.82a37,37,0,0,1-3.85-3.76c-3.85-4.05-6.77-6.3-12.13-8.37-6.57-2.54-23.12-8-29.42-5-1.87.94-3.85,2.35-5.54,3.38-2.73,1.79-5.45,3.48-8.37,5.08-7.05,3.85-14.75,6.86-22.74,7.52-21.34,1.69-48.13-1-68.15,7.14-14.76,6-47.74,4.42-63.73,3.29-13.53-.94-27-2.35-40.32-4.32-15.13-2.26-31.2,3.38-44.55,10a250.58,250.58,0,0,0-28.1,17c-3.67,2.44-7.34,5-11,7.42-2.54,1.69-5.27,3.57-7.9,5a69.64,69.64,0,0,1-11.09,4.42,115.74,115.74,0,0,1-17.95,4.14,83.93,83.93,0,0,1-11,1.22c-3.29.09-7.61,5.64-9.49,8-4.14,4.89-8.09,9.87-12.41,14.57a64,64,0,0,1-11.56,10.43c-4.14,1.88-8.65,5.64-10.34,9.87a7.8,7.8,0,0,0,3.67,10.15c.94,2.54,3.29,4.33,6.29,3.2,3.76-1.51,7.34-9.87,10.34-13.35A53.46,53.46,0,0,1,215,266c2.53-2.36,5.07-4.61,7.61-6.87,4.51-3.94,9-7.8,13.54-11.65,3.85-1.6,11.56-1.88,15.5-1.69,22.47.75,54.33-3.58,74.26-14.38,19.74-10.63,43.23-9.69,63.91-2.07,2.35.94,4.7,2.07,7.05,3.19,3.48,1.6,6.87,3.29,10.34,4.89a226,226,0,0,0,28.58,11.19c23.12,7.14,47.93,9.3,70.68-.29,1.78,2.54,4.13,5.17,7.05,5.74a127.73,127.73,0,0,0,14.66,1.31c7.61.47,15.23.85,22.93,1.22,10.54.48,21.34.85,31.87,1.79a128.16,128.16,0,0,1,16,2.54,184.36,184.36,0,0,1,17.95,4.89c3.76,1.22,8.37,2.72,11.75,4.7a30.22,30.22,0,0,0,16.26,4A6.89,6.89,0,0,0,650,272Z"/><path class="cls-3" d="M641.55,187.51s-18.7-8.18-23.77-12.13-6-8.18-15.33-11.75-23-7.24-27.54-5.07-19.64,14.75-37.5,16.16-48.4-.75-67.39,7-71.62,4.23-105.37-.85-75.57,31.58-90,39.2S238,230,233.53,230.08s-18.14,23.31-32.42,32.81c0,0-7.05,3-9.31,8.55s3.57,7.62,3.57,7.62.47,3.75,3.38,2.63,5.55-8.27,9.4-12.69,26.42-23.5,26.42-23.5,5.26-2.54,16.91-2.07,48.6-.94,73-14.1,50.47-7.89,65.89-2.16c14.47,5.36,68.8,39.76,116.64,18.14,2.16,3.48,4.42,5.92,6.67,6.39,8.46,1.69,52.36,2.82,69.19,4.33s39.66,8.46,46.71,12.4a26.81,26.81,0,0,0,15,3.67,3.84,3.84,0,0,0,3.76-2.63s2.35.84,4.89-1.6-1.88-3.66-5.27-4a115.19,115.19,0,0,1-25.66-7.9c-10.9-4.79-25.19-7.89-25.19-7.89-34.59-7.33-59-11.28-65.7-13a6.49,6.49,0,0,1-3.29-2.54c35.9-25.47,31.58-40.42,76.32-39.95,0,0,13.63.66,23.12,4.61,0,0,4.24,1.69,7.62-.75,0,0,10.53-3.39,6.29-8.93Z"/><path class="cls-4" d="M234.57,230.06h-1c-4.42.09-18.14,23.31-32.42,32.8,0,0-7.05,3-9.31,8.56s3.57,7.61,3.57,7.61.47,3.76,3.38,2.63,5.55-8.27,9.4-12.69,26.42-23.5,26.42-23.5,2.44-1.22,7.8-1.78c-3.1-.94-6.3-3-7.15-7.24a38.36,38.36,0,0,1-.65-6.39Zm349.27,26c16.74,1.59,38.82,8.46,45.78,12.31a26.77,26.77,0,0,0,15,3.66,3.84,3.84,0,0,0,3.76-2.63s2.35.85,4.89-1.6-1.88-3.66-5.27-4a115.55,115.55,0,0,1-25.66-7.89c-10.9-4.8-25.19-7.9-25.19-7.9-3-.56-5.83-1.22-8.74-1.78a4.53,4.53,0,0,0-2,4.79c.56,3.38-2.64,5.08-2.64,5.08Z"/><path class="cls-4" d="M641.74,187.57s-15.09-6.63-21.86-10.76c0,0-6.62,6.06-19,6.91s-26-5.64-33.46,4.7-16.26,7.14-22.93,14.75-5.46,14-19.74,15.61a23.33,23.33,0,0,0-4.23.75,40.46,40.46,0,0,0,7.89,13.06c35.91-25.47,31.58-40.41,76.33-39.94,0,0,13.63.65,23.12,4.6,0,0,4.23,1.69,7.61-.75,0,0,10.53-3.38,6.3-8.93ZM497.18,232.31c-1,.28,1-.09,0,0-9,1.32-14.2-2.54-22.09,2.82-8.74,6-16.07,5.36-28.57-1s-25.85-3.2-33.75-6.11-43.68-15-62.57-6.46h0c15.79-1.6,30.33,1.95,40.39,5.71,14.38,5.35,68.14,39.38,115.89,18.51a161.11,161.11,0,0,0-9.3-13.44Z"/><path class="cls-5" d="M561,178.74c10.34,5.83,11.57-27.35,15.89-14.29l.09.1c.66,1.88,4,2.06,4.8,0a6.25,6.25,0,0,0,.09-3.48c-4.32-22.09-35.9,9.21-20.87,17.67Z"/><path class="cls-2" d="M565.1,209a5.92,5.92,0,0,0-.19-8.36c-6.86-6.58-11.37-19.93-12.87-29a5.9,5.9,0,0,0-11.66,1.78c1.88,11.75,7.8,27.54,16.36,35.72a5.91,5.91,0,0,0,8.36-.1Z"/><path class="cls-6" d="M549.69,172a3.41,3.41,0,0,0-4.05-2.91,3.48,3.48,0,0,0-2.91,3.95c0,.09,3.67,22.93,15.61,34.4a3.54,3.54,0,0,0,5-.1,3.46,3.46,0,0,0-.09-5C553,192.46,549.69,172,549.69,172Z"/><path class="cls-5" d="M637.57,196.41c-5.26-1.13-12-5.17-14.66-5.36s7.33,6.39,11.84,7Z"/><line class="cls-7" x1="516.89" y1="210.78" x2="516.89" y2="210.78"/><path class="cls-8" d="M628.94,281.91a1,1,0,0,1-1.23.65,1,1,0,0,1-.65-1.12s.37-1.7-4.61-2.82a.88.88,0,0,1-.75-1,.92.92,0,0,1,1.13-.75c6.95,1.41,6.11,5.08,6.11,5.08Z"/><path class="cls-5" d="M598,177a3.64,3.64,0,1,1,3.63-3.63A3.66,3.66,0,0,1,598,177Z"/><path class="cls-4" d="M599.11,173.65a1.24,1.24,0,1,1,1.24-1.23,1.23,1.23,0,0,1-1.24,1.23Z"/><path class="cls-8" d="M194.4,280.32a.94.94,0,0,1-.94-.94.89.89,0,0,1,.94-.94,4.28,4.28,0,0,0,2.82-.94,3.64,3.64,0,0,0,1.59-2.44,1.09,1.09,0,0,1,1.23-.66,1,1,0,0,1,.66,1.13,5.79,5.79,0,0,1-2.35,3.48,6.09,6.09,0,0,1-3.95,1.31Z"/><path class="cls-8" d="M220.5,286.21a.94.94,0,0,1-.94-.94,1,1,0,0,1,.94-.94A4.3,4.3,0,0,0,225,281a.86.86,0,0,1,1.13-.66.84.84,0,0,1,.66,1.13,6.28,6.28,0,0,1-2.26,3.48,7,7,0,0,1-4,1.22Z"/><path class="cls-5" d="M641.59,196c-11.75-13.25.47-14.38,3.85-11.18,2.64,2.35-1.12,9.77-3.85,11.18Z"/><path class="cls-8" d="M650.42,271a1,1,0,0,1-1.13.76,1,1,0,0,1-.75-1.13s.47-1.79-4.61-2.82a.92.92,0,0,1-.75-1.13,1,1,0,0,1,1.13-.75c7,1.5,6.11,5.07,6.11,5.07Z"/><path class="cls-9" d="M516.89,207.17s5,20.86,12.26,26.46l11.73,1.89"/><path class="cls-9" d="M495.9,227.57s11.33,25.35,19.8,25.55"/><text class="cls-10" transform="translate(277.45 435.95)"><tspan xml:space="preserve"> HONDENSCHOOL</tspan></text><path class="cls-11" d="M108.77,375.09q.11,8.18,1.75,10.14t7.6,2.23a2.31,2.31,0,0,1,0,3.12c-1.57,0-3.75-.11-6.57-.33s-5.17-.33-7.08-.33-4.28.11-7.15.33-5.06.33-6.58.33a3,3,0,0,1-.42-1.62,2.35,2.35,0,0,1,.42-1.5c4-.18,6.53-.92,7.61-2.23s1.65-4.69,1.72-10.14q.44-22.62.43-28.87,0-6.66-.43-29.34-.1-8.17-1.72-10.14c-1.08-1.31-3.61-2.05-7.61-2.23a3,3,0,0,1-.42-1.63,2.34,2.34,0,0,1,.42-1.49q2.39,0,6.58.33t7,.33q3,0,7.29-.33c2.88-.22,5.06-.33,6.56-.33a2.31,2.31,0,0,1,0,3.12c-4,.18-6.55.92-7.63,2.23s-1.65,4.69-1.72,10.14q-.31,14.31-.32,23.75,1.06.93,17.84.93,19.12,0,20-.93,0-14.16-.21-23.75-.1-8.17-1.86-10.14t-7.75-2.23a2.91,2.91,0,0,1-.43-1.63,2.28,2.28,0,0,1,.43-1.49q2.35,0,6.66.33t7.25.33q2.91,0,7.29-.33t6.65-.33a2.28,2.28,0,0,1,0,3.12q-6,.27-7.71,2.23t-1.83,10.14q-.21,11.44-.21,29.47,0,17.56.21,28.74.1,8.18,1.83,10.14t7.71,2.23a2.28,2.28,0,0,1,0,3.12q-2.39,0-6.76-.33c-2.91-.22-5.31-.33-7.18-.33s-4.44.11-7.33.33-5.08.33-6.58.33a2.88,2.88,0,0,1-.43-1.62,2.29,2.29,0,0,1,.43-1.5q6-.27,7.75-2.23t1.86-10.14c.07-3.91.12-9.19.16-15.87s.05-11.05.05-13.13q-1.55-.94-20.12-1-16.09,0-17.74,1Q108.45,357.93,108.77,375.09Z"/><path class="cls-11" d="M239.26,345.05q0,17.44-6.52,29a34.79,34.79,0,0,1-11.58,12.69,28.91,28.91,0,0,1-15.88,4.49q-14.22,0-23.95-12t-9.73-31.61q0-18.36,7.22-30.78A36,36,0,0,1,190,304.64a26,26,0,0,1,14.56-4.38q15,0,24.84,12.12T239.26,345.05Zm-36-41.67q-8.39,0-15.12,11t-6.73,30.95q0,18.9,7.82,30.85t18.27,11.95q9.44,0,15.72-11.21t6.29-29.25q0-20.12-7.59-32.19T203.21,303.38Z"/><path class="cls-11" d="M303.38,318.41a58,58,0,0,0-.35-7.28,7.24,7.24,0,0,0-1.64-4,6,6,0,0,0-2.73-1.83,36.07,36.07,0,0,0-4.77-.8,2.78,2.78,0,0,1,0-3.12q2.6.06,5.93.36t5.73.3q2.38,0,5.78-.3t5.94-.36a2.78,2.78,0,0,1,0,3.12,30.62,30.62,0,0,0-4.75.87,6.24,6.24,0,0,0-2.78,1.89,7.16,7.16,0,0,0-1.59,4,59.69,59.69,0,0,0-.32,7.18l-.11,68.65v1.6c0,.17,0,.4,0,.66s0,.47-.05.6,0,.29-.08.46a.88.88,0,0,1-.17.4,2.76,2.76,0,0,1-.23.27.67.67,0,0,1-.32.17,3,3,0,0,1-.45,0q-2.44,0-4.35-3.26l-37.91-60.06c-1.84-3-3.06-4.5-3.66-4.46-1,0-1.43,2.22-1.43,6.65l.1,43.44a63.48,63.48,0,0,0,.32,7.28,7,7,0,0,0,1.62,4,5.74,5.74,0,0,0,2.73,1.83,35.76,35.76,0,0,0,4.77.8,2.42,2.42,0,0,1,.48,1.56,2.38,2.38,0,0,1-.48,1.56c-1.48,0-2.9-.12-4.24-.23l-3.74-.3c-1.15-.09-2.36-.13-3.63-.13q-2.39,0-5.78.3c-2.27.2-4.24.32-5.94.36a2.38,2.38,0,0,1-.48-1.56,2.42,2.42,0,0,1,.48-1.56,30.62,30.62,0,0,0,4.75-.87,6.05,6.05,0,0,0,2.75-1.89,7.4,7.4,0,0,0,1.59-4,56.45,56.45,0,0,0,.35-7.18l.1-58.54q-2.12-9.51-9.12-10.11a2.82,2.82,0,0,1,0-3.12l14,.26L297,362.25c.32.49.64,1,1,1.56s.62,1,.85,1.43.47.8.72,1.2l.63,1c.18.29.35.57.53.83s.33.48.45.63l.37.44a2.17,2.17,0,0,0,.35.3.63.63,0,0,0,.32.1c.88,0,1.32-1.38,1.32-4.13Z"/><path class="cls-11" d="M337.57,302.05c1.1,0,3.86-.11,8.26-.33s8-.33,10.71-.33q15.52,0,26.6,13.73T394.21,348a60.56,60.56,0,0,1-2.28,17.3,37.6,37.6,0,0,1-5.85,12.27,32.94,32.94,0,0,1-8.4,7.68,32.1,32.1,0,0,1-9.57,4.22,39.93,39.93,0,0,1-9.61,1.16q-6.54,0-13.07-.33t-7.64-.33q-3,0-7.37.33t-6.63.33a2.75,2.75,0,0,1-.43-1.56,2.2,2.2,0,0,1,.42-1.43q5.87-.27,7.45-2.23t1.69-10.18q.4-22.69.41-29,0-6.68-.42-29.43-.11-8.21-1.69-10.18t-7.44-2.23a2.77,2.77,0,0,1-.42-1.56,2.18,2.18,0,0,1,.43-1.43q2.37,0,6.63.33T337.57,302.05Zm4.88,73.13a40,40,0,0,0,.45,5.57,9.48,9.48,0,0,0,1.59,3.71,6.08,6.08,0,0,0,3.79,2.4,31.26,31.26,0,0,0,6.89.6,31.65,31.65,0,0,0,11.06-1.84,25.62,25.62,0,0,0,15.84-17.15,55.63,55.63,0,0,0,2.38-17.25,82.22,82.22,0,0,0-1-12.94A60.79,60.79,0,0,0,380,325.7a42.51,42.51,0,0,0-6.07-10.81,27.44,27.44,0,0,0-9.16-7.51,26.28,26.28,0,0,0-12.26-2.87,37.32,37.32,0,0,0-4.18.2,4.93,4.93,0,0,0-2.78,1.17l-1.67,1.5a4.57,4.57,0,0,0-.87,2.54c-.2,1.33-.31,2.31-.35,2.93s-.09,1.94-.16,3.94q-.42,22.95-.42,29.56Q342,360.3,342.45,375.18Z"/><path class="cls-11" d="M476.61,300.26a34.28,34.28,0,0,1,14.45,3.18q6.93,3.19,9.33,3.19,1.07,7,2.38,20.86a3.67,3.67,0,0,1-2.59.79q-5.91-24.16-25.06-24.1-10.58,0-18.4,11.85t-7.82,29.33a55.65,55.65,0,0,0,1.94,14.24,56.75,56.75,0,0,0,5.54,13.63,32,32,0,0,0,9.43,10.41,21.74,21.74,0,0,0,12.77,4.09,19.82,19.82,0,0,0,8.76-2.23,21.6,21.6,0,0,0,7.32-5.69v-22q0-3.8-1.89-4.89c-1.26-.73-3.56-1.29-6.92-1.69a3,3,0,0,1-.42-1.77,3.78,3.78,0,0,1,.31-1.76q2.29,0,6.79.33t6.78.34a39.23,39.23,0,0,0,5.1-.34,34.36,34.36,0,0,1,3.83-.33,2.45,2.45,0,0,1,.52,1.76,2.51,2.51,0,0,1-.51,1.77,5.3,5.3,0,0,0-3.72,1.69q-1.17,1.44-1.17,4.89v17a5.27,5.27,0,0,0,1.7,3.79,38.25,38.25,0,0,1-29,12.64q-15.75,0-25.82-12.51t-10.05-30.66q0-14.43,5.3-25.54T459,305.84A30.73,30.73,0,0,1,476.61,300.26Z"/><path class="cls-11" d="M546.92,341.16q6.62-.12,8.17-1.67t1.77-7.34c.81-1,1.61-1,2.39,0,0,.89-.08,2.63-.21,5.22s-.22,4.75-.22,6.47c0,1.47.07,3.26.22,5.35s.21,3.87.21,5.34c-.82,1-1.61,1-2.39,0a23.48,23.48,0,0,0-.72-5.25,5,5,0,0,0-2.64-2.76,14.24,14.24,0,0,0-6.58-1.17l-12.7-.13q-.11,23.82.21,35.32c.14,3.9,1.48,5.86,4,5.86h16.86q9.95,0,14.33-19.63a2.78,2.78,0,0,1,2.6.67q-1.65,12.84-3.93,23.14-8.68-.66-13.89-.66H530.29q-1.63,0-6.68.33t-7.63.33a2.88,2.88,0,0,1-.43-1.62,2.29,2.29,0,0,1,.43-1.5q6-.27,7.56-2.23t1.77-10.14q.21-11.18.21-28.87,0-18.09-.21-29.34-.21-8.17-1.77-10.14T516,304.51a2.91,2.91,0,0,1-.43-1.63,2.28,2.28,0,0,1,.43-1.49q2.7,0,7.58.33c3.25.22,5.43.33,6.52.33H561.8a39.29,39.29,0,0,0,5.46-.93c.28,0,.42.13.42.4q.84,4.22,2.38,20.24a3.42,3.42,0,0,1-2.6.66q-1.22-4.74-1.84-6.68a42.21,42.21,0,0,0-2-4.77,8.5,8.5,0,0,0-3.36-3.91,10.23,10.23,0,0,0-4.94-1.09H538.45q-3.81,0-4,5.93l-.21,29.4Z"/><path class="cls-11" d="M634.54,390.58l-3.1-.16-5.62-.3c-2.49-.13-4.16-.2-5-.2H581.25a1.83,1.83,0,0,1-2.07-2.06,6.21,6.21,0,0,1,.85-3.13l22.09-38.53q13-22.65,20.17-35.18c1.17-2,1.75-3.3,1.75-3.92s-.88-1.08-2.65-1.13l-23.33.6q-10.77.27-14.53,15.74a12.26,12.26,0,0,1-2.17-.66q1.86-11.83,2.39-21.06,14.79,1.53,19.61,1.46h24c1.23,0,2.79,0,4.66-.13s3-.13,3.24-.13a1.28,1.28,0,0,1,1.43,1.46q0,1.92-2.61,6.17-16.92,27.4-40.73,70.71a7.88,7.88,0,0,0-.83,2.67,3.91,3.91,0,0,0,.69,2.12,2.24,2.24,0,0,0,2,1.08l22.06-.6a19.11,19.11,0,0,0,7-1.4,11.41,11.41,0,0,0,4.93-4.28,41.21,41.21,0,0,0,3-5.25,67.43,67.43,0,0,0,2.51-6.6,10.47,10.47,0,0,0,.43-1.2,13.88,13.88,0,0,1,2.28.66A222.38,222.38,0,0,0,634.54,390.58Z"/><path class="cls-11" d="M673.38,341.16q6.61-.12,8.17-1.67c1.05-1,1.63-3.48,1.78-7.34.81-1,1.61-1,2.38,0q0,1.34-.21,5.22t-.21,6.47c0,1.47.07,3.26.21,5.35s.21,3.87.21,5.34c-.81,1-1.61,1-2.38,0a24.09,24.09,0,0,0-.72-5.25,5,5,0,0,0-2.64-2.76,14.28,14.28,0,0,0-6.59-1.17l-12.7-.13q-.1,23.82.22,35.32c.14,3.9,1.48,5.86,4,5.86h16.86q9.93,0,14.33-19.63a2.78,2.78,0,0,1,2.6.67q-1.65,12.84-3.93,23.14-8.7-.66-13.89-.66H656.76c-1.1,0-3.32.11-6.68.33s-5.9.33-7.63.33A2.88,2.88,0,0,1,642,389a2.29,2.29,0,0,1,.43-1.5q6-.27,7.55-2.23c1-1.31,1.64-4.69,1.78-10.14q.21-11.18.21-28.87,0-18.09-.21-29.34c-.14-5.45-.74-8.83-1.78-10.14s-3.56-2.05-7.55-2.23a2.91,2.91,0,0,1-.43-1.63,2.28,2.28,0,0,1,.43-1.49c1.8,0,4.32.11,7.58.33s5.42.33,6.52.33h31.71a38.81,38.81,0,0,0,5.46-.93c.28,0,.42.13.42.4q.86,4.22,2.39,20.24a3.42,3.42,0,0,1-2.6.66c-.81-3.16-1.42-5.39-1.85-6.68a38.79,38.79,0,0,0-2-4.77,8.43,8.43,0,0,0-3.35-3.91,10.27,10.27,0,0,0-5-1.09H664.92q-3.81,0-4,5.93l-.22,29.4Z"/><path class="cls-11" d="M722.72,375.09q.16,10.91,6.2,10.91h7.89q7.94,0,11.88-4.69t5.8-13.21a3.51,3.51,0,0,1,2.49.73q-.9,9.65-2.81,21.75-10-.66-12.95-.66H718.07q-1.65,0-6.56.3t-7.55.36a2.38,2.38,0,0,1-.48-1.56,2.42,2.42,0,0,1,.48-1.56,38.14,38.14,0,0,0,4.72-.5,5.07,5.07,0,0,0,2.7-1.6,6.7,6.7,0,0,0,1.59-3.62,47.77,47.77,0,0,0,.42-6.65q.33-17,.32-28.87,0-12.3-.31-29.34c0-1.95-.11-3.55-.21-4.82a12.93,12.93,0,0,0-.66-3.29,8.69,8.69,0,0,0-1-2.16,3.75,3.75,0,0,0-1.76-1.23,9.64,9.64,0,0,0-2.36-.6q-1.15-.13-3.3-.27a2.77,2.77,0,0,1,0-3.12q2.33.06,6.66.36t7.28.3q3,0,7.48-.3c3-.2,5.19-.32,6.67-.36a2.55,2.55,0,0,1,.5,1.56,2.18,2.18,0,0,1-.5,1.56,39,39,0,0,0-4.69.5,5,5,0,0,0-2.67,1.63,6.89,6.89,0,0,0-1.59,3.59,53.37,53.37,0,0,0-.48,6.65q-.32,13.71-.31,29.47Q722.41,349.14,722.72,375.09Z"/><path class="cls-12" d="M420.23,358.68c-1.92,3.3-4.19,4.94-6.82,4.94a6.71,6.71,0,0,1-4.85-2,7.57,7.57,0,0,1-2-5.65,8.66,8.66,0,0,1,1.61-5,19.24,19.24,0,0,1,5.18-4.68,17.88,17.88,0,0,1-1.92-7,6.34,6.34,0,0,1,1.52-4.1,5.37,5.37,0,0,1,7.42-.68,4.17,4.17,0,0,1,1.36,3.3,8.06,8.06,0,0,1-1.4,4.09,14.38,14.38,0,0,1-4.14,4.18q.89,2,4.79,8.51c1-1.91,2-3.88,2.87-5.91a13.08,13.08,0,0,0,.68-1.9,1.28,1.28,0,0,0-.08-1,1,1,0,0,0-.62-.44,8.6,8.6,0,0,0-1.26-.15,1.08,1.08,0,0,1-.14-.56.86.86,0,0,1,.14-.51c.14,0,.43,0,.86.07l1.32.12c.44,0,.85,0,1.22,0s1.13,0,1.9-.11L429,344a.79.79,0,0,1,.15.51,1,1,0,0,1-.15.56,3.88,3.88,0,0,0-2.33.72,13.14,13.14,0,0,0-1.87,3.41c-1.2,2.67-2.27,4.86-3.21,6.54l1.37,2.46q1.72,3.13,2.92,3.14c1.08,0,2-.91,2.71-2.73a1,1,0,0,1,.78.47,9.38,9.38,0,0,1-1.85,3.36,2.88,2.88,0,0,1-2,1.15,4.78,4.78,0,0,1-1.23-.13,4,4,0,0,1-1.34-.85,7.63,7.63,0,0,1-1.66-2.11Zm-6.3-11.12a11,11,0,0,0-3.51,4,11.39,11.39,0,0,0-.95,4.76A7.09,7.09,0,0,0,410.8,361a3.75,3.75,0,0,0,2.86,1.61,4.11,4.11,0,0,0,3-1.24,20.24,20.24,0,0,0,2.82-4q-1.63-2.69-3.46-5.89C414.83,349.32,414.13,348,413.93,347.56Zm1.59-2.83a9.9,9.9,0,0,0,2.61-3.4,8.37,8.37,0,0,0,1-3.49,4.56,4.56,0,0,0-.63-2.55,2,2,0,0,0-1.73-1,2.38,2.38,0,0,0-2,1.12,5.55,5.55,0,0,0-.82,3.32,12.77,12.77,0,0,0,.4,2.68A16.74,16.74,0,0,0,415.52,344.73Z"/><polygon class="cls-4" points="492.63 304.15 495.08 303.56 497.15 305.93 492.63 304.15"/></svg>