<svg id="Laag_1" data-name="Laag 1" xmlns="http://www.w3.org/2000/svg" viewBox="0 0 305.1 134.53"><defs><style>.cls-1,.cls-6,.cls-7,.cls-9{stroke:#1d1d1b;}.cls-1,.cls-6,.cls-9{stroke-miterlimit:10;}.cls-1,.cls-6{stroke-width:0.14px;}.cls-1,.cls-2,.cls-3,.cls-4{fill-rule:evenodd;}.cls-2{fill:#f4d3a2;}.cls-10,.cls-3{fill:#fff;}.cls-5{fill:#e7414e;}.cls-7{fill:none;stroke-linecap:round;stroke-linejoin:round;stroke-width:0.99px;}.cls-8{font-size:17.71px;font-family:SourceSansPro-Regular, Source Sans Pro;}.cls-9{stroke-width:0.09px;}</style></defs><title>hondengezel_logo_SVG</title><path class="cls-1" d="M86.4,110.44A9.4,9.4,0,0,0,81.62,115a3.55,3.55,0,0,0,1.72,4.64,2.15,2.15,0,0,0,2.88,1.46c1.72-.69,3.35-4.52,4.73-6.11,1-1.2,6.54-4.17,8.13-5,2.93-1.63,5.94-3.23,8.9-4.77a19.85,19.85,0,0,1,5.94-1.33c2.75-.3,5.55-.43,8.35-.69,7.74-.73,14.67-2.37,21.64-6.11a32.2,32.2,0,0,1,18.45-3.44,1,1,0,0,0,.95-.39,1.11,1.11,0,0,0,.21-1,20,20,0,0,0-5.16-7.83C152.64,79,145,78.23,137.58,79.6l-.34.13a21.2,21.2,0,0,0-6,5.08c-1.12,1.46-2,3.05-3.14,4.47a8.92,8.92,0,0,1-2.8,2.28,41.71,41.71,0,0,1-6.62,2.67c-2.06.65-4.13,1.2-6.24,1.72a22.91,22.91,0,0,1-3.74.69c-2.62,0-18.93,11.53-22.33,13.81Z" transform="translate(-24.1 -58.64)"/><path class="cls-2" d="M137.8,80.68c-7.53,4.34-7,9.25-12,11.87s-15.06,5.12-17.08,5.16S93.45,107,86.91,111.43c0,0-3.23,1.38-4.26,3.91s1.63,3.44,1.63,3.44.21,1.76,1.5,1.25,2.58-3.79,4.34-5.81,17.38-10.07,17.38-10.07c6.75-3.18,20.3.26,35.83-8.09a33,33,0,0,1,19.14-3.57S157.8,76.94,137.8,80.68Z" transform="translate(-24.1 -58.64)"/><path class="cls-3" d="M103,100.72c-5,3.1-11.92,7.92-16.09,10.71,0,0-3.23,1.38-4.26,3.91s1.63,3.44,1.63,3.44.21,1.76,1.5,1.25,2.58-3.79,4.34-5.81,17.38-10.07,17.38-10.07a14.65,14.65,0,0,1,2.54-.86h0s-2.5.21-3.44-3.18Z" transform="translate(-24.1 -58.64)"/><path class="cls-1" d="M270.46,118.06a3.5,3.5,0,0,0,2.28-.95,1.83,1.83,0,0,0,.73-1.68c-.26-1.38-2.24-1.81-3.4-2a45.38,45.38,0,0,1-10.28-3.53,56.13,56.13,0,0,0-10.58-3.74c-6-1.51-12-2.93-18-4.26-3-.64-6.32-1.25-9.21-2.11-1.68-.52-2.71-6.19-2.88-7.66a1,1,0,0,0-.65-.86c-3.31-1.51-8.52-.13-11.7,1.42a1.07,1.07,0,0,0-.56,1.25c.77,3.44,3.48,13.85,7.31,14.75a58.09,58.09,0,0,0,6.11.77l9.59.77c4.43.34,8.95.64,13.38,1.2a49.34,49.34,0,0,1,6.58,1.29,63.73,63.73,0,0,1,7.4,2.28,32.45,32.45,0,0,1,4.86,2.11,12.29,12.29,0,0,0,6.8,2,2.89,2.89,0,0,0,2.19-1Z" transform="translate(-24.1 -58.64)"/><path class="cls-2" d="M218.07,92.25s.9,7.74,3.61,8.56,12.95,2.8,27.27,6.37a64.73,64.73,0,0,1,10.37,3.66,46.84,46.84,0,0,0,10.58,3.66c1.42.26,3.27.82,2.11,1.81a2.14,2.14,0,0,1-2.11.6,1.74,1.74,0,0,1-1.63,1.08,11,11,0,0,1-6.24-1.76c-2.84-1.76-12.22-5-19.27-5.85s-25.47-1.94-28.95-2.75-6.54-13.94-6.54-13.94,6.67-3.23,10.8-1.42Z" transform="translate(-24.1 -58.64)"/><path class="cls-3" d="M250.84,107.69a64.93,64.93,0,0,1,8.48,3.14,46.84,46.84,0,0,0,10.58,3.66c1.42.26,3.27.82,2.11,1.81a2.14,2.14,0,0,1-2.11.6,1.74,1.74,0,0,1-1.63,1.08,11,11,0,0,1-6.24-1.76c-2.11-1.29-7.83-3.44-13.46-4.77a2.58,2.58,0,0,1,1.16-1.33,2.45,2.45,0,0,0,1.12-2.41Z" transform="translate(-24.1 -58.64)"/><path class="cls-1" d="M146.27,74.35l-1.68-3.61a1.12,1.12,0,0,0-1.25-.6C135.6,72,127.78,73.84,120,75.47c-4.22.86-8.43,1.72-12.65,2.41a56.5,56.5,0,0,1-8.86,1,1.2,1.2,0,0,0-.77.26c-1.12,1-.34,2.41.86,3,1.72.9,17-1.42,19.4-1.81a112.58,112.58,0,0,0,14.2-3c2.88-.86,9.76-2.49,12.82-1.51a1.18,1.18,0,0,0,1.16-.3,1.12,1.12,0,0,0,.13-1.2Z" transform="translate(-24.1 -58.64)"/><path class="cls-2" d="M145.33,74.83l-1.72-3.61s-36,8.86-45.17,8.78c0,0-.65.6.6,1.2s23.4-2,32.82-4.86,13.46-1.5,13.46-1.5Z" transform="translate(-24.1 -58.64)"/><path class="cls-4" d="M244.69,70.66c4.73,2.67,5.29-12.52,7.31-6.5v0a1.29,1.29,0,0,0,2.24,0,3.33,3.33,0,0,0,0-1.59c-2-10.15-16.43,4.22-9.59,8Z" transform="translate(-24.1 -58.64)"/><path class="cls-1" d="M280.22,112.94a4.13,4.13,0,0,0,2.41-1.08,1.86,1.86,0,0,0,.65-1.76c-.3-1.46-2.5-1.85-3.7-2a48.26,48.26,0,0,1-11.44-3.48,62.64,62.64,0,0,0-11.7-3.7c-6.62-1.38-13.25-2.71-19.87-4-2.15-.39-3.57-.74-5.73-1.13-1.24-.23-3.26-.55-4.42-.85h0a98.43,98.43,0,0,0,9.21-7.74,55.24,55.24,0,0,1,6.8-5.89c5.08-3.36,11.27-3.7,17.12-3.61a32.08,32.08,0,0,1,10.24,2,5,5,0,0,0,4.35-.39,11.72,11.72,0,0,0,2.32-1.16c1.59-1.16,2.28-2.88,1-4.6a1.69,1.69,0,0,0-.43-.34c-2-.86-4-1.76-5.89-2.71a27.21,27.21,0,0,1-4.77-2.67,16.72,16.72,0,0,1-1.76-1.72A13.56,13.56,0,0,0,259,62.31c-3-1.16-10.58-3.66-13.46-2.28-.86.43-1.76,1.08-2.54,1.55-1.25.82-2.5,1.59-3.83,2.32a26.58,26.58,0,0,1-10.41,3.44c-9.76.77-22-.47-31.19,3.27-6.75,2.75-21.85,2-29.16,1.51-6.19-.43-12.35-1.08-18.45-2-6.93-1-14.28,1.55-20.39,4.6a114.88,114.88,0,0,0-12.86,7.79c-1.68,1.12-3.35,2.28-5,3.4-1.16.77-2.41,1.63-3.61,2.28a32,32,0,0,1-5.08,2,52.94,52.94,0,0,1-8.22,1.89,38.37,38.37,0,0,1-5,.56c-1.51,0-3.48,2.58-4.34,3.66-1.89,2.24-3.7,4.52-5.68,6.67a29.37,29.37,0,0,1-5.29,4.77,9.49,9.49,0,0,0-4.73,4.52,3.57,3.57,0,0,0,1.68,4.65,2.17,2.17,0,0,0,2.88,1.46c1.72-.69,3.35-4.52,4.73-6.11a25.24,25.24,0,0,1,2.19-2.11c1.16-1.08,2.32-2.11,3.48-3.14,2.06-1.81,4.13-3.57,6.19-5.33,1.76-.73,5.29-.86,7.1-.77,10.28.34,24.86-1.63,34-6.58s19.79-4.43,29.25-.95c1.08.43,2.15.95,3.23,1.46,1.59.73,3.14,1.5,4.73,2.24a102.93,102.93,0,0,0,13.08,5.12c10.58,3.27,21.94,4.26,32.35-.13a5.8,5.8,0,0,0,3.23,2.62,58.18,58.18,0,0,0,6.71.6c3.48.22,7,.39,10.49.56,4.82.22,9.77.39,14.58.82a58.79,58.79,0,0,1,7.31,1.16c2.8.6,5.55,1.38,8.22,2.24a29.27,29.27,0,0,1,5.38,2.15,13.78,13.78,0,0,0,7.44,1.85,3.14,3.14,0,0,0,2.32-1.16Z" transform="translate(-24.1 -58.64)"/><path class="cls-2" d="M276.37,74.28s-8.56-3.74-10.88-5.55-2.75-3.74-7-5.38S247.94,60,245.87,61s-9,6.75-17.16,7.4-22.15-.34-30.84,3.18-32.78,1.94-48.22-.39-34.58,14.45-41.21,17.94-16.73,4.56-18.8,4.6-8.3,10.67-14.84,15c0,0-3.23,1.38-4.26,3.91s1.63,3.48,1.63,3.48.22,1.72,1.55,1.2,2.54-3.79,4.3-5.81,12.09-10.75,12.09-10.75,2.41-1.16,7.74-.95,22.24-.43,33.42-6.45,23.1-3.61,30.15-1c6.62,2.45,31.49,18.2,53.38,8.3,1,1.59,2,2.71,3.05,2.92,3.87.77,24,1.29,31.66,2s18.15,3.87,21.38,5.68a12.27,12.27,0,0,0,6.88,1.68,1.76,1.76,0,0,0,1.72-1.2,2.27,2.27,0,0,0,2.24-.73c1.2-1.12-.86-1.68-2.41-1.85a52.82,52.82,0,0,1-11.74-3.61A71.93,71.93,0,0,0,256.07,102c-15.83-3.36-27-5.16-30.07-5.94a3,3,0,0,1-1.51-1.16c16.43-11.66,14.45-18.5,34.93-18.28,0,0,6.24.3,10.58,2.11a4,4,0,0,0,3.49-.34s4.82-1.55,2.88-4.09Z" transform="translate(-24.1 -58.64)"/><path class="cls-3" d="M90.22,93.75h-.47c-2,0-8.3,10.67-14.84,15,0,0-3.23,1.38-4.26,3.91s1.63,3.48,1.63,3.48.22,1.72,1.55,1.2,2.54-3.79,4.3-5.81,12.09-10.75,12.09-10.75a11.41,11.41,0,0,1,3.57-.82,4.36,4.36,0,0,1-3.27-3.31,17.81,17.81,0,0,1-.3-2.93Zm159.85,11.92c7.66.73,17.77,3.87,20.95,5.64A12.27,12.27,0,0,0,277.9,113a1.76,1.76,0,0,0,1.72-1.2,2.27,2.27,0,0,0,2.24-.73c1.2-1.12-.86-1.68-2.41-1.85a52.82,52.82,0,0,1-11.74-3.61A71.93,71.93,0,0,0,256.18,102c-1.38-.26-2.67-.56-4-.82a2.08,2.08,0,0,0-.9,2.19,2.33,2.33,0,0,1-1.2,2.32Z" transform="translate(-24.1 -58.64)"/><path class="cls-3" d="M276.48,74.27s-6.84-3-9.94-4.9a15.49,15.49,0,0,1-8.77,3.14c-5.68.43-11.92-2.58-15.31,2.15S235,77.92,232,81.41s-2.5,6.41-9,7.14a11.19,11.19,0,0,0-1.94.34,18.5,18.5,0,0,0,3.61,6c16.43-11.66,14.45-18.5,34.93-18.28,0,0,6.24.3,10.58,2.11a4,4,0,0,0,3.49-.34s4.82-1.55,2.88-4.09ZM210.32,94.74c-.47.13.47,0,0,0-4.13.6-6.5-1.16-10.11,1.29-4,2.75-7.36,2.45-13.08-.47s-11.83-1.46-15.44-2.8-20-6.84-28.65-2.93h0a41.85,41.85,0,0,1,18.5,2.58c6.58,2.45,31.19,18,53,8.47a72.79,72.79,0,0,0-4.26-6.15Z" transform="translate(-24.1 -58.64)"/><path class="cls-4" d="M239.49,70.27c4.73,2.67,5.29-12.52,7.27-6.54l0,0a1.23,1.23,0,0,0,2.19,0,2.87,2.87,0,0,0,0-1.59c-2-10.11-16.43,4.22-9.55,8.09Z" transform="translate(-24.1 -58.64)"/><path class="cls-1" d="M241.38,84.12a2.71,2.71,0,0,0-.09-3.83c-3.14-3-5.2-9.12-5.89-13.29a2.7,2.7,0,0,0-5.33.82c.86,5.38,3.57,12.6,7.48,16.35a2.71,2.71,0,0,0,3.83,0Z" transform="translate(-24.1 -58.64)"/><path class="cls-5" d="M234.33,67.17a1.56,1.56,0,0,0-1.85-1.33,1.6,1.6,0,0,0-1.33,1.81s1.68,10.5,7.14,15.74a1.62,1.62,0,0,0,2.28,0,1.59,1.59,0,0,0,0-2.28c-4.69-4.52-6.19-13.89-6.19-13.89Z" transform="translate(-24.1 -58.64)"/><path class="cls-4" d="M274.54,78.36c-2.41-.52-5.51-2.37-6.71-2.45s3.35,2.93,5.42,3.18Z" transform="translate(-24.1 -58.64)"/><line class="cls-6" x1="195.22" y1="26.3" x2="195.22" y2="26.3"/><path d="M270.6,117.48a.45.45,0,0,1-.56.3.44.44,0,0,1-.3-.52s.17-.77-2.11-1.29a.39.39,0,0,1-.34-.47.42.42,0,0,1,.52-.34c3.18.65,2.8,2.32,2.8,2.32Z" transform="translate(-24.1 -58.64)"/><path class="cls-4" d="M256.44,69.48a1.66,1.66,0,1,1,1.66-1.66,1.67,1.67,0,0,1-1.66,1.66Z" transform="translate(-24.1 -58.64)"/><path class="cls-3" d="M256.95,67.94a.56.56,0,1,1,.56-.56.56.56,0,0,1-.56.56Z" transform="translate(-24.1 -58.64)"/><path class="cls-6" d="M71.73,116.76a.43.43,0,0,1-.43-.43.41.41,0,0,1,.43-.43,2,2,0,0,0,1.29-.43,1.67,1.67,0,0,0,.73-1.12.49.49,0,0,1,.56-.3.47.47,0,0,1,.3.52,2.64,2.64,0,0,1-1.08,1.59,2.77,2.77,0,0,1-1.81.6Z" transform="translate(-24.1 -58.64)"/><path class="cls-6" d="M83.68,119.45a.43.43,0,0,1-.43-.43.46.46,0,0,1,.43-.43,2,2,0,0,0,2.06-1.51.4.4,0,0,1,.52-.3.38.38,0,0,1,.3.52,2.87,2.87,0,0,1-1,1.59,3.18,3.18,0,0,1-1.85.56Z" transform="translate(-24.1 -58.64)"/><path class="cls-4" d="M276.39,78.16c-5.38-6.07.22-6.58,1.76-5.12,1.2,1.08-.52,4.47-1.76,5.12Z" transform="translate(-24.1 -58.64)"/><path d="M280.43,112.48a.44.44,0,1,1-.86-.17s.21-.82-2.11-1.29a.42.42,0,0,1-.34-.52.45.45,0,0,1,.52-.34c3.18.69,2.8,2.32,2.8,2.32Z" transform="translate(-24.1 -58.64)"/><path class="cls-7" d="M219.32,83.28s2.29,9.54,5.61,12.11l5.37.87" transform="translate(-24.1 -58.64)"/><path class="cls-7" d="M209.56,92.62s5.27,11.67,9.14,11.76" transform="translate(-24.1 -58.64)"/><text class="cls-8" transform="translate(85.64 129.34)"><tspan xml:space="preserve"> HONDENSCHOOL</tspan></text><path d="M32.54,160.13q.05,3.74.8,4.64t3.48,1a1.06,1.06,0,0,1,0,1.43q-1.07,0-3-.15t-3.24-.15q-1.3,0-3.27.15t-3,.15a1.35,1.35,0,0,1-.2-.75,1.07,1.07,0,0,1,.2-.69q2.74-.12,3.48-1t.79-4.64q.19-10.35.19-13.21,0-3-.19-13.42-.05-3.74-.79-4.64t-3.48-1a1.36,1.36,0,0,1-.2-.75,1.07,1.07,0,0,1,.2-.69q1.09,0,3,.15t3.18.15q1.36,0,3.34-.15t3-.15a1.06,1.06,0,0,1,0,1.43q-2.75.12-3.49,1t-.79,4.64q-.15,6.55-.15,10.87.49.43,8.17.43,8.75,0,9.16-.43,0-6.48-.1-10.87,0-3.74-.85-4.64t-3.55-1a1.36,1.36,0,0,1-.2-.75,1.07,1.07,0,0,1,.2-.69q1.08,0,3.05.15t3.31.15q1.34,0,3.34-.15t3-.15a1.05,1.05,0,0,1,0,1.43q-2.74.12-3.53,1t-.84,4.64q-.09,5.24-.09,13.49,0,8,.09,13.15,0,3.74.84,4.64t3.53,1a1.05,1.05,0,0,1,0,1.43q-1.09,0-3.09-.15t-3.29-.15q-1.37,0-3.35.15t-3,.15a1.35,1.35,0,0,1-.2-.75,1.07,1.07,0,0,1,.2-.69q2.75-.12,3.55-1t.85-4.64q.05-2.68.07-7.26t0-6q-.71-.43-9.21-.46-7.36,0-8.12.46Q32.4,152.27,32.54,160.13Z" transform="translate(-24.1 -58.64)"/><path d="M92.26,146.38q0,8-3,13.28a15.87,15.87,0,0,1-5.3,5.8,13.2,13.2,0,0,1-7.27,2.06,13.62,13.62,0,0,1-11-5.48q-4.45-5.48-4.45-14.47,0-8.4,3.3-14.09a16.44,16.44,0,0,1,5.13-5.6,11.85,11.85,0,0,1,6.66-2,14,14,0,0,1,11.37,5.55Q92.26,137,92.26,146.38Zm-16.5-19.07q-3.83,0-6.92,5T65.76,146.5q0,8.65,3.58,14.12t8.36,5.47q4.32,0,7.19-5.13t2.88-13.39q0-9.2-3.47-14.73T75.76,127.31Z" transform="translate(-24.1 -58.64)"/><path d="M121.6,134.19a26.58,26.58,0,0,0-.16-3.33,3.31,3.31,0,0,0-.75-1.83,2.71,2.71,0,0,0-1.25-.84,16.38,16.38,0,0,0-2.18-.36,1.27,1.27,0,0,1,0-1.43q1.19,0,2.72.17t2.62.14c.73,0,1.61,0,2.64-.14s1.94-.15,2.72-.17a1.27,1.27,0,0,1,0,1.43,13.69,13.69,0,0,0-2.17.4,2.84,2.84,0,0,0-1.28.87,3.28,3.28,0,0,0-.73,1.81,27.82,27.82,0,0,0-.15,3.29l0,31.42v.73c0,.08,0,.18,0,.3s0,.21,0,.27,0,.13,0,.21a.42.42,0,0,1-.07.18l-.11.12a.27.27,0,0,1-.14.08H123q-1.12,0-2-1.49l-17.35-27.49q-1.26-2.07-1.67-2-.65,0-.65,3l0,19.88a29,29,0,0,0,.15,3.33,3.23,3.23,0,0,0,.74,1.83,2.69,2.69,0,0,0,1.25.84,16.47,16.47,0,0,0,2.18.36,1.28,1.28,0,0,1,0,1.43q-1,0-1.94-.11L102,167q-.79-.06-1.66-.06-1.09,0-2.65.14t-2.72.17a1.28,1.28,0,0,1,0-1.43,13.76,13.76,0,0,0,2.17-.4,2.75,2.75,0,0,0,1.26-.87,3.4,3.4,0,0,0,.73-1.81,26,26,0,0,0,.16-3.29l0-26.79q-1-4.35-4.17-4.63a1.28,1.28,0,0,1,0-1.43l6.41.12,17.06,27.55.45.72.39.65.33.55.29.47.24.38.21.29.17.2a.81.81,0,0,0,.16.14.27.27,0,0,0,.15,0c.4,0,.61-.63.61-1.89Z" transform="translate(-24.1 -58.64)"/><path d="M137.25,126.7q.75,0,3.78-.15t4.9-.15q7.1,0,12.17,6.29a23.2,23.2,0,0,1,5.07,15,27.72,27.72,0,0,1-1,7.91,17.13,17.13,0,0,1-2.68,5.62,15,15,0,0,1-3.84,3.52,14.74,14.74,0,0,1-4.38,1.93,18.37,18.37,0,0,1-4.4.53q-3,0-6-.15t-3.5-.15q-1.37,0-3.37.15t-3,.15a1.27,1.27,0,0,1-.19-.71,1,1,0,0,1,.19-.66q2.69-.12,3.41-1t.77-4.66q.19-10.38.19-13.25,0-3.05-.19-13.47,0-3.76-.77-4.66t-3.41-1a1.28,1.28,0,0,1-.19-.71,1,1,0,0,1,.19-.66q1.08,0,3,.15T137.25,126.7Zm2.23,33.47a18.22,18.22,0,0,0,.21,2.55,4.31,4.31,0,0,0,.73,1.69,2.78,2.78,0,0,0,1.73,1.1,14.27,14.27,0,0,0,3.15.27,14.56,14.56,0,0,0,5.06-.84,11.73,11.73,0,0,0,7.25-7.85,25.38,25.38,0,0,0,1.09-7.89,37.21,37.21,0,0,0-.47-5.93,27.56,27.56,0,0,0-1.59-5.76,19.66,19.66,0,0,0-2.78-4.95,12.6,12.6,0,0,0-4.19-3.44,12,12,0,0,0-5.61-1.31,16.81,16.81,0,0,0-1.91.09,2.25,2.25,0,0,0-1.27.53l-.76.69a2.1,2.1,0,0,0-.4,1.16q-.13.92-.16,1.34t-.07,1.8q-.2,10.51-.19,13.53Q139.29,153.36,139.49,160.17Z" transform="translate(-24.1 -58.64)"/><path d="M200.88,125.88a15.65,15.65,0,0,1,6.61,1.46,13.39,13.39,0,0,0,4.27,1.46q.49,3.21,1.09,9.55a1.68,1.68,0,0,1-1.19.36q-2.7-11.06-11.47-11-4.84,0-8.42,5.42a23.86,23.86,0,0,0-3.58,13.42,25.4,25.4,0,0,0,.89,6.51,25.88,25.88,0,0,0,2.54,6.24,14.63,14.63,0,0,0,4.31,4.76,9.93,9.93,0,0,0,5.84,1.87,9,9,0,0,0,4-1,9.88,9.88,0,0,0,3.35-2.6V152.21q0-1.74-.86-2.24a9.11,9.11,0,0,0-3.17-.78,1.33,1.33,0,0,1-.19-.81,1.71,1.71,0,0,1,.14-.81q1.05,0,3.1.15t3.1.15a18.63,18.63,0,0,0,2.33-.15,15.55,15.55,0,0,1,1.76-.15,1.48,1.48,0,0,1,0,1.61,2.42,2.42,0,0,0-1.7.78,3.58,3.58,0,0,0-.54,2.24V160a2.43,2.43,0,0,0,.78,1.74,17.5,17.5,0,0,1-13.26,5.78,14.49,14.49,0,0,1-11.82-5.72,21.67,21.67,0,0,1-4.6-14,26.83,26.83,0,0,1,2.43-11.69,18.68,18.68,0,0,1,6.19-7.64A14,14,0,0,1,200.88,125.88Z" transform="translate(-24.1 -58.64)"/><path d="M233.06,144.6q3-.06,3.74-.77t.81-3.36q.56-.69,1.09,0,0,.61-.1,2.39t-.1,3q0,1,.1,2.45t.1,2.45q-.56.7-1.09,0a11.05,11.05,0,0,0-.33-2.41,2.31,2.31,0,0,0-1.21-1.26,6.55,6.55,0,0,0-3-.53l-5.81-.06q0,10.9.1,16.16.1,2.68,1.84,2.68h7.72q4.55,0,6.56-9a1.27,1.27,0,0,1,1.19.3q-.75,5.88-1.8,10.59-4-.3-6.36-.3h-11q-.75,0-3.06.15t-3.49.15a1.35,1.35,0,0,1-.2-.75,1.07,1.07,0,0,1,.2-.69q2.74-.12,3.46-1t.81-4.64q.09-5.11.1-13.21,0-8.28-.1-13.42-.1-3.74-.81-4.64t-3.46-1a1.36,1.36,0,0,1-.2-.75,1.07,1.07,0,0,1,.2-.69q1.24,0,3.47.15t3,.15h14.51a17.86,17.86,0,0,0,2.5-.43c.13,0,.19.06.19.18q.39,1.93,1.09,9.26a1.56,1.56,0,0,1-1.19.3q-.56-2.17-.85-3.05a17.82,17.82,0,0,0-.92-2.18,3.86,3.86,0,0,0-1.54-1.79,4.66,4.66,0,0,0-2.26-.5h-7.72q-1.74,0-1.84,2.71l-.1,13.45Z" transform="translate(-24.1 -58.64)"/><path d="M273.16,167.22l-1.42-.08-2.57-.14q-1.71-.09-2.29-.09h-18.1a.84.84,0,0,1-.95-.94,2.81,2.81,0,0,1,.39-1.43l10.11-17.63,9.23-16.1a5.08,5.08,0,0,0,.8-1.79q0-.49-1.21-.52l-10.68.27q-4.93.12-6.65,7.2a5.5,5.5,0,0,1-1-.3q.85-5.41,1.09-9.64,6.77.7,9,.67h11q.85,0,2.14-.06l1.48-.06a.59.59,0,0,1,.66.67,6.59,6.59,0,0,1-1.19,2.83q-7.74,12.54-18.64,32.36a3.66,3.66,0,0,0-.38,1.22,1.8,1.8,0,0,0,.31,1,1,1,0,0,0,.92.49l10.1-.27a8.71,8.71,0,0,0,3.18-.64,5.2,5.2,0,0,0,2.26-2,18.72,18.72,0,0,0,1.39-2.4,32.16,32.16,0,0,0,1.15-3q.15-.37.2-.55a6.32,6.32,0,0,1,1,.3A100.92,100.92,0,0,0,273.16,167.22Z" transform="translate(-24.1 -58.64)"/><path d="M290.94,144.6q3-.06,3.74-.77t.81-3.36q.56-.69,1.09,0,0,.61-.1,2.39t-.1,3q0,1,.1,2.45t.1,2.45q-.56.7-1.09,0a11.05,11.05,0,0,0-.33-2.41,2.31,2.31,0,0,0-1.21-1.26,6.55,6.55,0,0,0-3-.53l-5.81-.06q0,10.9.1,16.16.1,2.68,1.84,2.68h7.72q4.55,0,6.56-9a1.27,1.27,0,0,1,1.19.3q-.75,5.88-1.8,10.59-4-.3-6.36-.3h-11q-.75,0-3.06.15t-3.49.15a1.35,1.35,0,0,1-.2-.75,1.07,1.07,0,0,1,.2-.69q2.74-.12,3.46-1t.81-4.64q.09-5.11.1-13.21,0-8.28-.1-13.42-.1-3.74-.81-4.64t-3.46-1a1.36,1.36,0,0,1-.2-.75,1.07,1.07,0,0,1,.2-.69q1.24,0,3.47.15t3,.15h14.51a17.86,17.86,0,0,0,2.5-.43c.13,0,.19.06.19.18q.39,1.93,1.09,9.26a1.56,1.56,0,0,1-1.19.3q-.56-2.17-.85-3.05a17.82,17.82,0,0,0-.92-2.18A3.86,3.86,0,0,0,297,129a4.66,4.66,0,0,0-2.26-.5h-7.72q-1.74,0-1.84,2.71l-.1,13.45Z" transform="translate(-24.1 -58.64)"/><path d="M313.52,160.13q.07,5,2.84,5H320A6.71,6.71,0,0,0,325.4,163a13.86,13.86,0,0,0,2.65-6,1.61,1.61,0,0,1,1.14.34q-.41,4.41-1.29,10-4.59-.3-5.93-.3H311.38q-.75,0-3,.14t-3.46.17a1.28,1.28,0,0,1,0-1.43,17.59,17.59,0,0,0,2.16-.23,2.32,2.32,0,0,0,1.24-.73,3,3,0,0,0,.73-1.66,22.47,22.47,0,0,0,.19-3q.15-7.76.15-13.21,0-5.63-.14-13.42,0-1.34-.09-2.21a6,6,0,0,0-.3-1.51,4.11,4.11,0,0,0-.48-1,1.72,1.72,0,0,0-.8-.56,4.44,4.44,0,0,0-1.08-.27q-.53-.06-1.51-.12a1.29,1.29,0,0,1,0-1.43q1.06,0,3,.17t3.34.14q1.39,0,3.42-.14t3.05-.17a1.17,1.17,0,0,1,.23.72,1,1,0,0,1-.23.72,17.09,17.09,0,0,0-2.14.23,2.29,2.29,0,0,0-1.22.75,3.12,3.12,0,0,0-.73,1.64,24.19,24.19,0,0,0-.22,3q-.15,6.27-.14,13.49Q313.37,148.25,313.52,160.13Z" transform="translate(-24.1 -58.64)"/><path class="cls-9" d="M175.08,152.62q-1.32,2.26-3.12,2.26a3.06,3.06,0,0,1-2.22-.92,3.46,3.46,0,0,1-.93-2.58,4,4,0,0,1,.74-2.31,8.78,8.78,0,0,1,2.37-2.14,8.19,8.19,0,0,1-.88-3.21,2.91,2.91,0,0,1,.69-1.88,2.26,2.26,0,0,1,1.84-.85,2.28,2.28,0,0,1,1.56.54,1.9,1.9,0,0,1,.62,1.51,3.68,3.68,0,0,1-.64,1.87,6.58,6.58,0,0,1-1.89,1.91q.41.89,2.19,3.89.71-1.31,1.31-2.71a6,6,0,0,0,.31-.87.58.58,0,0,0,0-.47.47.47,0,0,0-.28-.2,4.11,4.11,0,0,0-.58-.07.46.46,0,0,1-.07-.25.36.36,0,0,1,.07-.23l.39,0,.6.05.56,0c.23,0,.52,0,.87-.05l.55-.05a.36.36,0,0,1,.07.23.46.46,0,0,1-.07.25,1.78,1.78,0,0,0-1.07.33,6.22,6.22,0,0,0-.86,1.56q-.82,1.84-1.47,3l.63,1.13q.79,1.44,1.33,1.44.74,0,1.24-1.25a.46.46,0,0,1,.35.22,4.35,4.35,0,0,1-.84,1.54,1.33,1.33,0,0,1-.89.53,2.16,2.16,0,0,1-.56-.06,1.87,1.87,0,0,1-.61-.39,3.63,3.63,0,0,1-.76-1Zm-2.88-5.09a5,5,0,0,0-1.61,1.84,5.18,5.18,0,0,0-.43,2.18,3.25,3.25,0,0,0,.61,2.11,1.71,1.71,0,0,0,1.31.74,1.88,1.88,0,0,0,1.39-.57,9.25,9.25,0,0,0,1.29-1.82q-.74-1.23-1.58-2.7T172.2,147.53Zm.73-1.29a4.51,4.51,0,0,0,1.19-1.56,3.86,3.86,0,0,0,.45-1.6,2.1,2.1,0,0,0-.29-1.17.9.9,0,0,0-.79-.44,1.1,1.1,0,0,0-.9.51,2.56,2.56,0,0,0-.37,1.52,5.88,5.88,0,0,0,.18,1.22A7.34,7.34,0,0,0,172.93,146.24Z" transform="translate(-24.1 -58.64)"/><polygon class="cls-10" points="184.11 69.02 184.93 68.93 186.17 69.84 184.11 69.02"/></svg>